<?xml version="1.0" encoding="utf-8" standalone="no"?>
<!DOCTYPE svg PUBLIC "-//W3C//DTD SVG 1.1//EN"
  "http://www.w3.org/Graphics/SVG/1.1/DTD/svg11.dtd">
<!-- Created with matplotlib (https://matplotlib.org/) -->
<svg height="720pt" version="1.1" viewBox="0 0 1008 720" width="1008pt" xmlns="http://www.w3.org/2000/svg" xmlns:xlink="http://www.w3.org/1999/xlink">
 <defs>
  <style type="text/css">
*{stroke-linecap:butt;stroke-linejoin:round;}
  </style>
 </defs>
 <g id="figure_1">
  <g id="patch_1">
   <path d="M 0 720 
L 1008 720 
L 1008 0 
L 0 0 
z
" style="fill:#ffffff;"/>
  </g>
  <g id="axes_1">
   <g id="patch_2">
    <path d="M 126 640.8 
L 907.2 640.8 
L 907.2 86.4 
L 126 86.4 
z
" style="fill:#ffffff;"/>
   </g>
   <g id="matplotlib.axis_1">
    <g id="xtick_1">
     <g id="line2d_1">
      <defs>
       <path d="M 0 0 
L 0 3.5 
" id="m4967b4a36f" style="stroke:#000000;stroke-width:0.8;"/>
      </defs>
      <g>
       <use style="stroke:#000000;stroke-width:0.8;" x="161.509091" xlink:href="#m4967b4a36f" y="640.8"/>
      </g>
     </g>
     <g id="text_1">
      <!-- 1950 -->
      <defs>
       <path d="M 12.40625 8.296875 
L 28.515625 8.296875 
L 28.515625 63.921875 
L 10.984375 60.40625 
L 10.984375 69.390625 
L 28.421875 72.90625 
L 38.28125 72.90625 
L 38.28125 8.296875 
L 54.390625 8.296875 
L 54.390625 0 
L 12.40625 0 
z
" id="DejaVuSans-49"/>
       <path d="M 10.984375 1.515625 
L 10.984375 10.5 
Q 14.703125 8.734375 18.5 7.8125 
Q 22.3125 6.890625 25.984375 6.890625 
Q 35.75 6.890625 40.890625 13.453125 
Q 46.046875 20.015625 46.78125 33.40625 
Q 43.953125 29.203125 39.59375 26.953125 
Q 35.25 24.703125 29.984375 24.703125 
Q 19.046875 24.703125 12.671875 31.3125 
Q 6.296875 37.9375 6.296875 49.421875 
Q 6.296875 60.640625 12.9375 67.421875 
Q 19.578125 74.21875 30.609375 74.21875 
Q 43.265625 74.21875 49.921875 64.515625 
Q 56.59375 54.828125 56.59375 36.375 
Q 56.59375 19.140625 48.40625 8.859375 
Q 40.234375 -1.421875 26.421875 -1.421875 
Q 22.703125 -1.421875 18.890625 -0.6875 
Q 15.09375 0.046875 10.984375 1.515625 
z
M 30.609375 32.421875 
Q 37.25 32.421875 41.125 36.953125 
Q 45.015625 41.5 45.015625 49.421875 
Q 45.015625 57.28125 41.125 61.84375 
Q 37.25 66.40625 30.609375 66.40625 
Q 23.96875 66.40625 20.09375 61.84375 
Q 16.21875 57.28125 16.21875 49.421875 
Q 16.21875 41.5 20.09375 36.953125 
Q 23.96875 32.421875 30.609375 32.421875 
z
" id="DejaVuSans-57"/>
       <path d="M 10.796875 72.90625 
L 49.515625 72.90625 
L 49.515625 64.59375 
L 19.828125 64.59375 
L 19.828125 46.734375 
Q 21.96875 47.46875 24.109375 47.828125 
Q 26.265625 48.1875 28.421875 48.1875 
Q 40.625 48.1875 47.75 41.5 
Q 54.890625 34.8125 54.890625 23.390625 
Q 54.890625 11.625 47.5625 5.09375 
Q 40.234375 -1.421875 26.90625 -1.421875 
Q 22.3125 -1.421875 17.546875 -0.640625 
Q 12.796875 0.140625 7.71875 1.703125 
L 7.71875 11.625 
Q 12.109375 9.234375 16.796875 8.0625 
Q 21.484375 6.890625 26.703125 6.890625 
Q 35.15625 6.890625 40.078125 11.328125 
Q 45.015625 15.765625 45.015625 23.390625 
Q 45.015625 31 40.078125 35.4375 
Q 35.15625 39.890625 26.703125 39.890625 
Q 22.75 39.890625 18.8125 39.015625 
Q 14.890625 38.140625 10.796875 36.28125 
z
" id="DejaVuSans-53"/>
       <path d="M 31.78125 66.40625 
Q 24.171875 66.40625 20.328125 58.90625 
Q 16.5 51.421875 16.5 36.375 
Q 16.5 21.390625 20.328125 13.890625 
Q 24.171875 6.390625 31.78125 6.390625 
Q 39.453125 6.390625 43.28125 13.890625 
Q 47.125 21.390625 47.125 36.375 
Q 47.125 51.421875 43.28125 58.90625 
Q 39.453125 66.40625 31.78125 66.40625 
z
M 31.78125 74.21875 
Q 44.046875 74.21875 50.515625 64.515625 
Q 56.984375 54.828125 56.984375 36.375 
Q 56.984375 17.96875 50.515625 8.265625 
Q 44.046875 -1.421875 31.78125 -1.421875 
Q 19.53125 -1.421875 13.0625 8.265625 
Q 6.59375 17.96875 6.59375 36.375 
Q 6.59375 54.828125 13.0625 64.515625 
Q 19.53125 74.21875 31.78125 74.21875 
z
" id="DejaVuSans-48"/>
      </defs>
      <g transform="translate(143.694091 658.437813)scale(0.14 -0.14)">
       <use xlink:href="#DejaVuSans-49"/>
       <use x="63.623047" xlink:href="#DejaVuSans-57"/>
       <use x="127.246094" xlink:href="#DejaVuSans-53"/>
       <use x="190.869141" xlink:href="#DejaVuSans-48"/>
      </g>
     </g>
    </g>
    <g id="xtick_2">
     <g id="line2d_2">
      <g>
       <use style="stroke:#000000;stroke-width:0.8;" x="270.767832" xlink:href="#m4967b4a36f" y="640.8"/>
      </g>
     </g>
     <g id="text_2">
      <!-- 1960 -->
      <defs>
       <path d="M 33.015625 40.375 
Q 26.375 40.375 22.484375 35.828125 
Q 18.609375 31.296875 18.609375 23.390625 
Q 18.609375 15.53125 22.484375 10.953125 
Q 26.375 6.390625 33.015625 6.390625 
Q 39.65625 6.390625 43.53125 10.953125 
Q 47.40625 15.53125 47.40625 23.390625 
Q 47.40625 31.296875 43.53125 35.828125 
Q 39.65625 40.375 33.015625 40.375 
z
M 52.59375 71.296875 
L 52.59375 62.3125 
Q 48.875 64.0625 45.09375 64.984375 
Q 41.3125 65.921875 37.59375 65.921875 
Q 27.828125 65.921875 22.671875 59.328125 
Q 17.53125 52.734375 16.796875 39.40625 
Q 19.671875 43.65625 24.015625 45.921875 
Q 28.375 48.1875 33.59375 48.1875 
Q 44.578125 48.1875 50.953125 41.515625 
Q 57.328125 34.859375 57.328125 23.390625 
Q 57.328125 12.15625 50.6875 5.359375 
Q 44.046875 -1.421875 33.015625 -1.421875 
Q 20.359375 -1.421875 13.671875 8.265625 
Q 6.984375 17.96875 6.984375 36.375 
Q 6.984375 53.65625 15.1875 63.9375 
Q 23.390625 74.21875 37.203125 74.21875 
Q 40.921875 74.21875 44.703125 73.484375 
Q 48.484375 72.75 52.59375 71.296875 
z
" id="DejaVuSans-54"/>
      </defs>
      <g transform="translate(252.952832 658.437813)scale(0.14 -0.14)">
       <use xlink:href="#DejaVuSans-49"/>
       <use x="63.623047" xlink:href="#DejaVuSans-57"/>
       <use x="127.246094" xlink:href="#DejaVuSans-54"/>
       <use x="190.869141" xlink:href="#DejaVuSans-48"/>
      </g>
     </g>
    </g>
    <g id="xtick_3">
     <g id="line2d_3">
      <g>
       <use style="stroke:#000000;stroke-width:0.8;" x="380.026573" xlink:href="#m4967b4a36f" y="640.8"/>
      </g>
     </g>
     <g id="text_3">
      <!-- 1970 -->
      <defs>
       <path d="M 8.203125 72.90625 
L 55.078125 72.90625 
L 55.078125 68.703125 
L 28.609375 0 
L 18.3125 0 
L 43.21875 64.59375 
L 8.203125 64.59375 
z
" id="DejaVuSans-55"/>
      </defs>
      <g transform="translate(362.211573 658.437813)scale(0.14 -0.14)">
       <use xlink:href="#DejaVuSans-49"/>
       <use x="63.623047" xlink:href="#DejaVuSans-57"/>
       <use x="127.246094" xlink:href="#DejaVuSans-55"/>
       <use x="190.869141" xlink:href="#DejaVuSans-48"/>
      </g>
     </g>
    </g>
    <g id="xtick_4">
     <g id="line2d_4">
      <g>
       <use style="stroke:#000000;stroke-width:0.8;" x="489.285315" xlink:href="#m4967b4a36f" y="640.8"/>
      </g>
     </g>
     <g id="text_4">
      <!-- 1980 -->
      <defs>
       <path d="M 31.78125 34.625 
Q 24.75 34.625 20.71875 30.859375 
Q 16.703125 27.09375 16.703125 20.515625 
Q 16.703125 13.921875 20.71875 10.15625 
Q 24.75 6.390625 31.78125 6.390625 
Q 38.8125 6.390625 42.859375 10.171875 
Q 46.921875 13.96875 46.921875 20.515625 
Q 46.921875 27.09375 42.890625 30.859375 
Q 38.875 34.625 31.78125 34.625 
z
M 21.921875 38.8125 
Q 15.578125 40.375 12.03125 44.71875 
Q 8.5 49.078125 8.5 55.328125 
Q 8.5 64.0625 14.71875 69.140625 
Q 20.953125 74.21875 31.78125 74.21875 
Q 42.671875 74.21875 48.875 69.140625 
Q 55.078125 64.0625 55.078125 55.328125 
Q 55.078125 49.078125 51.53125 44.71875 
Q 48 40.375 41.703125 38.8125 
Q 48.828125 37.15625 52.796875 32.3125 
Q 56.78125 27.484375 56.78125 20.515625 
Q 56.78125 9.90625 50.3125 4.234375 
Q 43.84375 -1.421875 31.78125 -1.421875 
Q 19.734375 -1.421875 13.25 4.234375 
Q 6.78125 9.90625 6.78125 20.515625 
Q 6.78125 27.484375 10.78125 32.3125 
Q 14.796875 37.15625 21.921875 38.8125 
z
M 18.3125 54.390625 
Q 18.3125 48.734375 21.84375 45.5625 
Q 25.390625 42.390625 31.78125 42.390625 
Q 38.140625 42.390625 41.71875 45.5625 
Q 45.3125 48.734375 45.3125 54.390625 
Q 45.3125 60.0625 41.71875 63.234375 
Q 38.140625 66.40625 31.78125 66.40625 
Q 25.390625 66.40625 21.84375 63.234375 
Q 18.3125 60.0625 18.3125 54.390625 
z
" id="DejaVuSans-56"/>
      </defs>
      <g transform="translate(471.470315 658.437813)scale(0.14 -0.14)">
       <use xlink:href="#DejaVuSans-49"/>
       <use x="63.623047" xlink:href="#DejaVuSans-57"/>
       <use x="127.246094" xlink:href="#DejaVuSans-56"/>
       <use x="190.869141" xlink:href="#DejaVuSans-48"/>
      </g>
     </g>
    </g>
    <g id="xtick_5">
     <g id="line2d_5">
      <g>
       <use style="stroke:#000000;stroke-width:0.8;" x="598.544056" xlink:href="#m4967b4a36f" y="640.8"/>
      </g>
     </g>
     <g id="text_5">
      <!-- 1990 -->
      <g transform="translate(580.729056 658.437813)scale(0.14 -0.14)">
       <use xlink:href="#DejaVuSans-49"/>
       <use x="63.623047" xlink:href="#DejaVuSans-57"/>
       <use x="127.246094" xlink:href="#DejaVuSans-57"/>
       <use x="190.869141" xlink:href="#DejaVuSans-48"/>
      </g>
     </g>
    </g>
    <g id="xtick_6">
     <g id="line2d_6">
      <g>
       <use style="stroke:#000000;stroke-width:0.8;" x="707.802797" xlink:href="#m4967b4a36f" y="640.8"/>
      </g>
     </g>
     <g id="text_6">
      <!-- 2000 -->
      <defs>
       <path d="M 19.1875 8.296875 
L 53.609375 8.296875 
L 53.609375 0 
L 7.328125 0 
L 7.328125 8.296875 
Q 12.9375 14.109375 22.625 23.890625 
Q 32.328125 33.6875 34.8125 36.53125 
Q 39.546875 41.84375 41.421875 45.53125 
Q 43.3125 49.21875 43.3125 52.78125 
Q 43.3125 58.59375 39.234375 62.25 
Q 35.15625 65.921875 28.609375 65.921875 
Q 23.96875 65.921875 18.8125 64.3125 
Q 13.671875 62.703125 7.8125 59.421875 
L 7.8125 69.390625 
Q 13.765625 71.78125 18.9375 73 
Q 24.125 74.21875 28.421875 74.21875 
Q 39.75 74.21875 46.484375 68.546875 
Q 53.21875 62.890625 53.21875 53.421875 
Q 53.21875 48.921875 51.53125 44.890625 
Q 49.859375 40.875 45.40625 35.40625 
Q 44.1875 33.984375 37.640625 27.21875 
Q 31.109375 20.453125 19.1875 8.296875 
z
" id="DejaVuSans-50"/>
      </defs>
      <g transform="translate(689.987797 658.437813)scale(0.14 -0.14)">
       <use xlink:href="#DejaVuSans-50"/>
       <use x="63.623047" xlink:href="#DejaVuSans-48"/>
       <use x="127.246094" xlink:href="#DejaVuSans-48"/>
       <use x="190.869141" xlink:href="#DejaVuSans-48"/>
      </g>
     </g>
    </g>
    <g id="xtick_7">
     <g id="line2d_7">
      <g>
       <use style="stroke:#000000;stroke-width:0.8;" x="817.061538" xlink:href="#m4967b4a36f" y="640.8"/>
      </g>
     </g>
     <g id="text_7">
      <!-- 2010 -->
      <g transform="translate(799.246538 658.437813)scale(0.14 -0.14)">
       <use xlink:href="#DejaVuSans-50"/>
       <use x="63.623047" xlink:href="#DejaVuSans-48"/>
       <use x="127.246094" xlink:href="#DejaVuSans-49"/>
       <use x="190.869141" xlink:href="#DejaVuSans-48"/>
      </g>
     </g>
    </g>
    <g id="text_8">
     <!-- Years -->
     <defs>
      <path d="M -0.203125 72.90625 
L 10.40625 72.90625 
L 30.609375 42.921875 
L 50.6875 72.90625 
L 61.28125 72.90625 
L 35.5 34.71875 
L 35.5 0 
L 25.59375 0 
L 25.59375 34.71875 
z
" id="DejaVuSans-89"/>
      <path d="M 56.203125 29.59375 
L 56.203125 25.203125 
L 14.890625 25.203125 
Q 15.484375 15.921875 20.484375 11.0625 
Q 25.484375 6.203125 34.421875 6.203125 
Q 39.59375 6.203125 44.453125 7.46875 
Q 49.3125 8.734375 54.109375 11.28125 
L 54.109375 2.78125 
Q 49.265625 0.734375 44.1875 -0.34375 
Q 39.109375 -1.421875 33.890625 -1.421875 
Q 20.796875 -1.421875 13.15625 6.1875 
Q 5.515625 13.8125 5.515625 26.8125 
Q 5.515625 40.234375 12.765625 48.109375 
Q 20.015625 56 32.328125 56 
Q 43.359375 56 49.78125 48.890625 
Q 56.203125 41.796875 56.203125 29.59375 
z
M 47.21875 32.234375 
Q 47.125 39.59375 43.09375 43.984375 
Q 39.0625 48.390625 32.421875 48.390625 
Q 24.90625 48.390625 20.390625 44.140625 
Q 15.875 39.890625 15.1875 32.171875 
z
" id="DejaVuSans-101"/>
      <path d="M 34.28125 27.484375 
Q 23.390625 27.484375 19.1875 25 
Q 14.984375 22.515625 14.984375 16.5 
Q 14.984375 11.71875 18.140625 8.90625 
Q 21.296875 6.109375 26.703125 6.109375 
Q 34.1875 6.109375 38.703125 11.40625 
Q 43.21875 16.703125 43.21875 25.484375 
L 43.21875 27.484375 
z
M 52.203125 31.203125 
L 52.203125 0 
L 43.21875 0 
L 43.21875 8.296875 
Q 40.140625 3.328125 35.546875 0.953125 
Q 30.953125 -1.421875 24.3125 -1.421875 
Q 15.921875 -1.421875 10.953125 3.296875 
Q 6 8.015625 6 15.921875 
Q 6 25.140625 12.171875 29.828125 
Q 18.359375 34.515625 30.609375 34.515625 
L 43.21875 34.515625 
L 43.21875 35.40625 
Q 43.21875 41.609375 39.140625 45 
Q 35.0625 48.390625 27.6875 48.390625 
Q 23 48.390625 18.546875 47.265625 
Q 14.109375 46.140625 10.015625 43.890625 
L 10.015625 52.203125 
Q 14.9375 54.109375 19.578125 55.046875 
Q 24.21875 56 28.609375 56 
Q 40.484375 56 46.34375 49.84375 
Q 52.203125 43.703125 52.203125 31.203125 
z
" id="DejaVuSans-97"/>
      <path d="M 41.109375 46.296875 
Q 39.59375 47.171875 37.8125 47.578125 
Q 36.03125 48 33.890625 48 
Q 26.265625 48 22.1875 43.046875 
Q 18.109375 38.09375 18.109375 28.8125 
L 18.109375 0 
L 9.078125 0 
L 9.078125 54.6875 
L 18.109375 54.6875 
L 18.109375 46.1875 
Q 20.953125 51.171875 25.484375 53.578125 
Q 30.03125 56 36.53125 56 
Q 37.453125 56 38.578125 55.875 
Q 39.703125 55.765625 41.0625 55.515625 
z
" id="DejaVuSans-114"/>
      <path d="M 44.28125 53.078125 
L 44.28125 44.578125 
Q 40.484375 46.53125 36.375 47.5 
Q 32.28125 48.484375 27.875 48.484375 
Q 21.1875 48.484375 17.84375 46.4375 
Q 14.5 44.390625 14.5 40.28125 
Q 14.5 37.15625 16.890625 35.375 
Q 19.28125 33.59375 26.515625 31.984375 
L 29.59375 31.296875 
Q 39.15625 29.25 43.1875 25.515625 
Q 47.21875 21.78125 47.21875 15.09375 
Q 47.21875 7.46875 41.1875 3.015625 
Q 35.15625 -1.421875 24.609375 -1.421875 
Q 20.21875 -1.421875 15.453125 -0.5625 
Q 10.6875 0.296875 5.421875 2 
L 5.421875 11.28125 
Q 10.40625 8.6875 15.234375 7.390625 
Q 20.0625 6.109375 24.8125 6.109375 
Q 31.15625 6.109375 34.5625 8.28125 
Q 37.984375 10.453125 37.984375 14.40625 
Q 37.984375 18.0625 35.515625 20.015625 
Q 33.0625 21.96875 24.703125 23.78125 
L 21.578125 24.515625 
Q 13.234375 26.265625 9.515625 29.90625 
Q 5.8125 33.546875 5.8125 39.890625 
Q 5.8125 47.609375 11.28125 51.796875 
Q 16.75 56 26.8125 56 
Q 31.78125 56 36.171875 55.265625 
Q 40.578125 54.546875 44.28125 53.078125 
z
" id="DejaVuSans-115"/>
     </defs>
     <g transform="translate(498.130938 675.987188)scale(0.14 -0.14)">
      <use xlink:href="#DejaVuSans-89"/>
      <use x="47.833984" xlink:href="#DejaVuSans-101"/>
      <use x="109.357422" xlink:href="#DejaVuSans-97"/>
      <use x="170.636719" xlink:href="#DejaVuSans-114"/>
      <use x="211.75" xlink:href="#DejaVuSans-115"/>
     </g>
    </g>
   </g>
   <g id="matplotlib.axis_2">
    <g id="ytick_1">
     <g id="line2d_8">
      <defs>
       <path d="M 0 0 
L -3.5 0 
" id="m4d36d55c4c" style="stroke:#000000;stroke-width:0.8;"/>
      </defs>
      <g>
       <use style="stroke:#000000;stroke-width:0.8;" x="126" xlink:href="#m4d36d55c4c" y="615.600008"/>
      </g>
     </g>
     <g id="text_9">
      <!-- 0 -->
      <g transform="translate(110.0925 620.918914)scale(0.14 -0.14)">
       <use xlink:href="#DejaVuSans-48"/>
      </g>
     </g>
    </g>
    <g id="ytick_2">
     <g id="line2d_9">
      <g>
       <use style="stroke:#000000;stroke-width:0.8;" x="126" xlink:href="#m4d36d55c4c" y="492.688442"/>
      </g>
     </g>
     <g id="text_10">
      <!-- 2 -->
      <g transform="translate(110.0925 498.007348)scale(0.14 -0.14)">
       <use xlink:href="#DejaVuSans-50"/>
      </g>
     </g>
    </g>
    <g id="ytick_3">
     <g id="line2d_10">
      <g>
       <use style="stroke:#000000;stroke-width:0.8;" x="126" xlink:href="#m4d36d55c4c" y="369.776876"/>
      </g>
     </g>
     <g id="text_11">
      <!-- 4 -->
      <defs>
       <path d="M 37.796875 64.3125 
L 12.890625 25.390625 
L 37.796875 25.390625 
z
M 35.203125 72.90625 
L 47.609375 72.90625 
L 47.609375 25.390625 
L 58.015625 25.390625 
L 58.015625 17.1875 
L 47.609375 17.1875 
L 47.609375 0 
L 37.796875 0 
L 37.796875 17.1875 
L 4.890625 17.1875 
L 4.890625 26.703125 
z
" id="DejaVuSans-52"/>
      </defs>
      <g transform="translate(110.0925 375.095782)scale(0.14 -0.14)">
       <use xlink:href="#DejaVuSans-52"/>
      </g>
     </g>
    </g>
    <g id="ytick_4">
     <g id="line2d_11">
      <g>
       <use style="stroke:#000000;stroke-width:0.8;" x="126" xlink:href="#m4d36d55c4c" y="246.865309"/>
      </g>
     </g>
     <g id="text_12">
      <!-- 6 -->
      <g transform="translate(110.0925 252.184216)scale(0.14 -0.14)">
       <use xlink:href="#DejaVuSans-54"/>
      </g>
     </g>
    </g>
    <g id="ytick_5">
     <g id="line2d_12">
      <g>
       <use style="stroke:#000000;stroke-width:0.8;" x="126" xlink:href="#m4d36d55c4c" y="123.953743"/>
      </g>
     </g>
     <g id="text_13">
      <!-- 8 -->
      <g transform="translate(110.0925 129.272649)scale(0.14 -0.14)">
       <use xlink:href="#DejaVuSans-56"/>
      </g>
     </g>
    </g>
    <g id="text_14">
     <!-- Rate of change -->
     <defs>
      <path d="M 44.390625 34.1875 
Q 47.5625 33.109375 50.5625 29.59375 
Q 53.5625 26.078125 56.59375 19.921875 
L 66.609375 0 
L 56 0 
L 46.6875 18.703125 
Q 43.0625 26.03125 39.671875 28.421875 
Q 36.28125 30.8125 30.421875 30.8125 
L 19.671875 30.8125 
L 19.671875 0 
L 9.8125 0 
L 9.8125 72.90625 
L 32.078125 72.90625 
Q 44.578125 72.90625 50.734375 67.671875 
Q 56.890625 62.453125 56.890625 51.90625 
Q 56.890625 45.015625 53.6875 40.46875 
Q 50.484375 35.9375 44.390625 34.1875 
z
M 19.671875 64.796875 
L 19.671875 38.921875 
L 32.078125 38.921875 
Q 39.203125 38.921875 42.84375 42.21875 
Q 46.484375 45.515625 46.484375 51.90625 
Q 46.484375 58.296875 42.84375 61.546875 
Q 39.203125 64.796875 32.078125 64.796875 
z
" id="DejaVuSans-82"/>
      <path d="M 18.3125 70.21875 
L 18.3125 54.6875 
L 36.8125 54.6875 
L 36.8125 47.703125 
L 18.3125 47.703125 
L 18.3125 18.015625 
Q 18.3125 11.328125 20.140625 9.421875 
Q 21.96875 7.515625 27.59375 7.515625 
L 36.8125 7.515625 
L 36.8125 0 
L 27.59375 0 
Q 17.1875 0 13.234375 3.875 
Q 9.28125 7.765625 9.28125 18.015625 
L 9.28125 47.703125 
L 2.6875 47.703125 
L 2.6875 54.6875 
L 9.28125 54.6875 
L 9.28125 70.21875 
z
" id="DejaVuSans-116"/>
      <path id="DejaVuSans-32"/>
      <path d="M 30.609375 48.390625 
Q 23.390625 48.390625 19.1875 42.75 
Q 14.984375 37.109375 14.984375 27.296875 
Q 14.984375 17.484375 19.15625 11.84375 
Q 23.34375 6.203125 30.609375 6.203125 
Q 37.796875 6.203125 41.984375 11.859375 
Q 46.1875 17.53125 46.1875 27.296875 
Q 46.1875 37.015625 41.984375 42.703125 
Q 37.796875 48.390625 30.609375 48.390625 
z
M 30.609375 56 
Q 42.328125 56 49.015625 48.375 
Q 55.71875 40.765625 55.71875 27.296875 
Q 55.71875 13.875 49.015625 6.21875 
Q 42.328125 -1.421875 30.609375 -1.421875 
Q 18.84375 -1.421875 12.171875 6.21875 
Q 5.515625 13.875 5.515625 27.296875 
Q 5.515625 40.765625 12.171875 48.375 
Q 18.84375 56 30.609375 56 
z
" id="DejaVuSans-111"/>
      <path d="M 37.109375 75.984375 
L 37.109375 68.5 
L 28.515625 68.5 
Q 23.6875 68.5 21.796875 66.546875 
Q 19.921875 64.59375 19.921875 59.515625 
L 19.921875 54.6875 
L 34.71875 54.6875 
L 34.71875 47.703125 
L 19.921875 47.703125 
L 19.921875 0 
L 10.890625 0 
L 10.890625 47.703125 
L 2.296875 47.703125 
L 2.296875 54.6875 
L 10.890625 54.6875 
L 10.890625 58.5 
Q 10.890625 67.625 15.140625 71.796875 
Q 19.390625 75.984375 28.609375 75.984375 
z
" id="DejaVuSans-102"/>
      <path d="M 48.78125 52.59375 
L 48.78125 44.1875 
Q 44.96875 46.296875 41.140625 47.34375 
Q 37.3125 48.390625 33.40625 48.390625 
Q 24.65625 48.390625 19.8125 42.84375 
Q 14.984375 37.3125 14.984375 27.296875 
Q 14.984375 17.28125 19.8125 11.734375 
Q 24.65625 6.203125 33.40625 6.203125 
Q 37.3125 6.203125 41.140625 7.25 
Q 44.96875 8.296875 48.78125 10.40625 
L 48.78125 2.09375 
Q 45.015625 0.34375 40.984375 -0.53125 
Q 36.96875 -1.421875 32.421875 -1.421875 
Q 20.0625 -1.421875 12.78125 6.34375 
Q 5.515625 14.109375 5.515625 27.296875 
Q 5.515625 40.671875 12.859375 48.328125 
Q 20.21875 56 33.015625 56 
Q 37.15625 56 41.109375 55.140625 
Q 45.0625 54.296875 48.78125 52.59375 
z
" id="DejaVuSans-99"/>
      <path d="M 54.890625 33.015625 
L 54.890625 0 
L 45.90625 0 
L 45.90625 32.71875 
Q 45.90625 40.484375 42.875 44.328125 
Q 39.84375 48.1875 33.796875 48.1875 
Q 26.515625 48.1875 22.3125 43.546875 
Q 18.109375 38.921875 18.109375 30.90625 
L 18.109375 0 
L 9.078125 0 
L 9.078125 75.984375 
L 18.109375 75.984375 
L 18.109375 46.1875 
Q 21.34375 51.125 25.703125 53.5625 
Q 30.078125 56 35.796875 56 
Q 45.21875 56 50.046875 50.171875 
Q 54.890625 44.34375 54.890625 33.015625 
z
" id="DejaVuSans-104"/>
      <path d="M 54.890625 33.015625 
L 54.890625 0 
L 45.90625 0 
L 45.90625 32.71875 
Q 45.90625 40.484375 42.875 44.328125 
Q 39.84375 48.1875 33.796875 48.1875 
Q 26.515625 48.1875 22.3125 43.546875 
Q 18.109375 38.921875 18.109375 30.90625 
L 18.109375 0 
L 9.078125 0 
L 9.078125 54.6875 
L 18.109375 54.6875 
L 18.109375 46.1875 
Q 21.34375 51.125 25.703125 53.5625 
Q 30.078125 56 35.796875 56 
Q 45.21875 56 50.046875 50.171875 
Q 54.890625 44.34375 54.890625 33.015625 
z
" id="DejaVuSans-110"/>
      <path d="M 45.40625 27.984375 
Q 45.40625 37.75 41.375 43.109375 
Q 37.359375 48.484375 30.078125 48.484375 
Q 22.859375 48.484375 18.828125 43.109375 
Q 14.796875 37.75 14.796875 27.984375 
Q 14.796875 18.265625 18.828125 12.890625 
Q 22.859375 7.515625 30.078125 7.515625 
Q 37.359375 7.515625 41.375 12.890625 
Q 45.40625 18.265625 45.40625 27.984375 
z
M 54.390625 6.78125 
Q 54.390625 -7.171875 48.1875 -13.984375 
Q 42 -20.796875 29.203125 -20.796875 
Q 24.46875 -20.796875 20.265625 -20.09375 
Q 16.0625 -19.390625 12.109375 -17.921875 
L 12.109375 -9.1875 
Q 16.0625 -11.328125 19.921875 -12.34375 
Q 23.78125 -13.375 27.78125 -13.375 
Q 36.625 -13.375 41.015625 -8.765625 
Q 45.40625 -4.15625 45.40625 5.171875 
L 45.40625 9.625 
Q 42.625 4.78125 38.28125 2.390625 
Q 33.9375 0 27.875 0 
Q 17.828125 0 11.671875 7.65625 
Q 5.515625 15.328125 5.515625 27.984375 
Q 5.515625 40.671875 11.671875 48.328125 
Q 17.828125 56 27.875 56 
Q 33.9375 56 38.28125 53.609375 
Q 42.625 51.21875 45.40625 46.390625 
L 45.40625 54.6875 
L 54.390625 54.6875 
z
" id="DejaVuSans-103"/>
     </defs>
     <g transform="translate(103.180937 416.606406)rotate(-90)scale(0.14 -0.14)">
      <use xlink:href="#DejaVuSans-82"/>
      <use x="67.232422" xlink:href="#DejaVuSans-97"/>
      <use x="128.511719" xlink:href="#DejaVuSans-116"/>
      <use x="167.720703" xlink:href="#DejaVuSans-101"/>
      <use x="229.244141" xlink:href="#DejaVuSans-32"/>
      <use x="261.03125" xlink:href="#DejaVuSans-111"/>
      <use x="322.212891" xlink:href="#DejaVuSans-102"/>
      <use x="357.417969" xlink:href="#DejaVuSans-32"/>
      <use x="389.205078" xlink:href="#DejaVuSans-99"/>
      <use x="444.185547" xlink:href="#DejaVuSans-104"/>
      <use x="507.564453" xlink:href="#DejaVuSans-97"/>
      <use x="568.84375" xlink:href="#DejaVuSans-110"/>
      <use x="632.222656" xlink:href="#DejaVuSans-103"/>
      <use x="695.699219" xlink:href="#DejaVuSans-101"/>
     </g>
    </g>
    <g id="text_15">
     <!-- 1e7 -->
     <g transform="translate(126 83.4)scale(0.1 -0.1)">
      <use xlink:href="#DejaVuSans-49"/>
      <use x="63.623047" xlink:href="#DejaVuSans-101"/>
      <use x="125.146484" xlink:href="#DejaVuSans-55"/>
     </g>
    </g>
   </g>
   <g id="line2d_13">
    <path clip-path="url(#p345747e11a)" d="M 161.509091 615.599995 
L 172.434965 615.599995 
L 183.360839 615.599995 
L 194.286713 615.599995 
L 205.212587 615.599995 
L 216.138462 615.599994 
L 227.064336 615.599994 
L 237.99021 615.599994 
L 248.916084 615.599994 
L 259.841958 615.599993 
L 270.767832 615.599993 
L 281.693706 615.599993 
L 292.61958 615.599993 
L 303.545455 615.599993 
L 314.471329 615.599993 
L 325.397203 615.599993 
L 336.323077 615.599993 
L 347.248951 615.599993 
L 358.174825 615.599994 
L 369.100699 615.599995 
L 380.026573 615.599996 
L 390.952448 615.599996 
L 401.878322 615.599997 
L 412.804196 615.599998 
L 423.73007 615.599998 
L 434.655944 615.599998 
L 445.581818 615.599999 
L 456.507692 615.599999 
L 467.433566 615.599999 
L 478.359441 615.599999 
L 489.285315 615.599999 
L 500.211189 615.599999 
L 511.137063 615.599999 
L 522.062937 615.599999 
L 532.988811 615.599999 
L 543.914685 615.599999 
L 554.840559 615.599999 
L 565.766434 615.599999 
L 576.692308 615.599999 
L 587.618182 615.6 
L 598.544056 615.6 
L 609.46993 615.6 
L 620.395804 615.6 
L 631.321678 615.6 
L 642.247552 615.6 
L 653.173427 615.6 
L 664.099301 615.6 
L 675.025175 615.6 
L 685.951049 615.6 
L 696.876923 615.6 
L 707.802797 615.6 
L 718.728671 615.6 
L 729.654545 615.6 
L 740.58042 615.6 
L 751.506294 615.6 
L 762.432168 615.6 
L 773.358042 615.6 
L 784.283916 615.6 
L 795.20979 615.6 
L 806.135664 615.6 
L 817.061538 615.6 
L 827.987413 615.599999 
L 838.913287 615.599999 
L 849.839161 615.599999 
L 860.765035 615.599999 
L 871.690909 615.599999 
" style="fill:none;stroke:#1f77b4;stroke-linecap:square;stroke-width:1.5;"/>
   </g>
   <g id="line2d_14">
    <path clip-path="url(#p345747e11a)" d="M 161.509091 615.599597 
L 172.434965 615.599596 
L 183.360839 615.599594 
L 194.286713 615.599592 
L 205.212587 615.59959 
L 216.138462 615.599588 
L 227.064336 615.599587 
L 237.99021 615.599587 
L 248.916084 615.599583 
L 259.841958 615.599582 
L 270.767832 615.599582 
L 281.693706 615.599579 
L 292.61958 615.599578 
L 303.545455 615.599577 
L 314.471329 615.599574 
L 325.397203 615.599574 
L 336.323077 615.599573 
L 347.248951 615.599572 
L 358.174825 615.599574 
L 369.100699 615.599575 
L 380.026573 615.599573 
L 390.952448 615.599572 
L 401.878322 615.599571 
L 412.804196 615.599569 
L 423.73007 615.599567 
L 434.655944 615.599568 
L 445.581818 615.599565 
L 456.507692 615.599562 
L 467.433566 615.599562 
L 478.359441 615.59956 
L 489.285315 615.599559 
L 500.211189 615.599557 
L 511.137063 615.599555 
L 522.062937 615.599553 
L 532.988811 615.599551 
L 543.914685 615.59955 
L 554.840559 615.599549 
L 565.766434 615.599546 
L 576.692308 615.599545 
L 587.618182 615.599544 
L 598.544056 615.599545 
L 609.46993 615.599543 
L 620.395804 615.599541 
L 631.321678 615.59954 
L 642.247552 615.599539 
L 653.173427 615.599537 
L 664.099301 615.599535 
L 675.025175 615.599533 
L 685.951049 615.599531 
L 696.876923 615.59953 
L 707.802797 615.599528 
L 718.728671 615.599526 
L 729.654545 615.599525 
L 740.58042 615.599524 
L 751.506294 615.599521 
L 762.432168 615.59952 
L 773.358042 615.599518 
L 784.283916 615.599517 
L 795.20979 615.599516 
L 806.135664 615.599516 
L 817.061538 615.599515 
L 827.987413 615.599513 
L 838.913287 615.599513 
L 849.839161 615.599512 
L 860.765035 615.599512 
L 871.690909 615.599511 
" style="fill:none;stroke:#ff7f0e;stroke-linecap:square;stroke-width:1.5;"/>
   </g>
   <g id="line2d_15">
    <path clip-path="url(#p345747e11a)" d="M 161.509091 186.723168 
L 172.434965 184.723243 
L 183.360839 182.819399 
L 194.286713 180.980279 
L 205.212587 179.167536 
L 216.138462 177.335834 
L 227.064336 175.431756 
L 237.99021 173.39489 
L 248.916084 171.161015 
L 259.841958 168.667373 
L 270.767832 165.868646 
L 281.693706 162.753913 
L 292.61958 159.36153 
L 303.545455 155.785448 
L 314.471329 152.15724 
L 325.397203 148.592983 
L 336.323077 145.106725 
L 347.248951 141.733663 
L 358.174825 138.63553 
L 369.100699 136.009702 
L 380.026573 133.9919 
L 390.952448 132.651095 
L 401.878322 131.942356 
L 412.804196 131.740904 
L 423.73007 131.857399 
L 434.655944 132.143789 
L 445.581818 132.530064 
L 456.507692 133.020149 
L 467.433566 133.622489 
L 478.359441 134.370394 
L 489.285315 135.264514 
L 500.211189 136.304088 
L 511.137063 137.39813 
L 522.062937 138.350062 
L 532.988811 138.907312 
L 543.914685 138.887443 
L 554.840559 138.261405 
L 565.766434 137.078357 
L 576.692308 135.341881 
L 587.618182 133.081218 
L 598.544056 130.355979 
L 609.46993 127.126466 
L 620.395804 123.487048 
L 631.321678 119.799338 
L 642.247552 116.537345 
L 653.173427 114.04154 
L 664.099301 112.456767 
L 675.025175 111.700499 
L 685.951049 111.6 
L 696.876923 111.872581 
L 707.802797 112.302188 
L 718.728671 112.8337 
L 729.654545 113.507311 
L 740.58042 114.308375 
L 751.506294 115.240598 
L 762.432168 116.29143 
L 773.358042 117.464602 
L 784.283916 118.702254 
L 795.20979 119.861366 
L 806.135664 120.759978 
L 817.061538 121.27853 
L 827.987413 121.343931 
L 838.913287 121.016452 
L 849.839161 120.4762 
L 860.765035 119.982089 
L 871.690909 119.722236 
" style="fill:none;stroke:#2ca02c;stroke-linecap:square;stroke-width:1.5;"/>
   </g>
   <g id="line2d_16">
    <path clip-path="url(#p345747e11a)" d="M 161.509091 615.599991 
L 172.434965 615.599991 
L 183.360839 615.599991 
L 194.286713 615.599991 
L 205.212587 615.599991 
L 216.138462 615.599992 
L 227.064336 615.599992 
L 237.99021 615.599991 
L 248.916084 615.599991 
L 259.841958 615.599991 
L 270.767832 615.599991 
L 281.693706 615.599991 
L 292.61958 615.599991 
L 303.545455 615.599991 
L 314.471329 615.599991 
L 325.397203 615.599991 
L 336.323077 615.599991 
L 347.248951 615.599992 
L 358.174825 615.599992 
L 369.100699 615.599992 
L 380.026573 615.599993 
L 390.952448 615.599993 
L 401.878322 615.599994 
L 412.804196 615.599994 
L 423.73007 615.599995 
L 434.655944 615.599995 
L 445.581818 615.599996 
L 456.507692 615.599996 
L 467.433566 615.599997 
L 478.359441 615.599997 
L 489.285315 615.599997 
L 500.211189 615.599997 
L 511.137063 615.599997 
L 522.062937 615.599997 
L 532.988811 615.599997 
L 543.914685 615.599997 
L 554.840559 615.599997 
L 565.766434 615.599997 
L 576.692308 615.599997 
L 587.618182 615.599997 
L 598.544056 615.599997 
L 609.46993 615.599997 
L 620.395804 615.599997 
L 631.321678 615.599997 
L 642.247552 615.599997 
L 653.173427 615.599997 
L 664.099301 615.599997 
L 675.025175 615.599997 
L 685.951049 615.599997 
L 696.876923 615.599997 
L 707.802797 615.599997 
L 718.728671 615.599997 
L 729.654545 615.599997 
L 740.58042 615.599996 
L 751.506294 615.599996 
L 762.432168 615.599996 
L 773.358042 615.599996 
L 784.283916 615.599996 
L 795.20979 615.599996 
L 806.135664 615.599996 
L 817.061538 615.599996 
L 827.987413 615.599996 
L 838.913287 615.599996 
L 849.839161 615.599996 
L 860.765035 615.599996 
L 871.690909 615.599996 
" style="fill:none;stroke:#d62728;stroke-linecap:square;stroke-width:1.5;"/>
   </g>
   <g id="line2d_17">
    <path clip-path="url(#p345747e11a)" d="M 161.509091 615.5996 
L 172.434965 615.599601 
L 183.360839 615.599593 
L 194.286713 615.599594 
L 205.212587 615.599588 
L 216.138462 615.599587 
L 227.064336 615.599587 
L 237.99021 615.599584 
L 248.916084 615.599576 
L 259.841958 615.599576 
L 270.767832 615.599575 
L 281.693706 615.599571 
L 292.61958 615.599574 
L 303.545455 615.599575 
L 314.471329 615.599569 
L 325.397203 615.59957 
L 336.323077 615.599568 
L 347.248951 615.599568 
L 358.174825 615.599568 
L 369.100699 615.599569 
L 380.026573 615.599564 
L 390.952448 615.599564 
L 401.878322 615.599562 
L 412.804196 615.599561 
L 423.73007 615.599559 
L 434.655944 615.599559 
L 445.581818 615.599557 
L 456.507692 615.599553 
L 467.433566 615.599553 
L 478.359441 615.599551 
L 489.285315 615.59955 
L 500.211189 615.599549 
L 511.137063 615.599547 
L 522.062937 615.599547 
L 532.988811 615.599544 
L 543.914685 615.599543 
L 554.840559 615.599541 
L 565.766434 615.599538 
L 576.692308 615.599536 
L 587.618182 615.599535 
L 598.544056 615.599534 
L 609.46993 615.599533 
L 620.395804 615.599531 
L 631.321678 615.599531 
L 642.247552 615.599529 
L 653.173427 615.599527 
L 664.099301 615.599526 
L 675.025175 615.599524 
L 685.951049 615.599524 
L 696.876923 615.599524 
L 707.802797 615.599522 
L 718.728671 615.599521 
L 729.654545 615.59952 
L 740.58042 615.599519 
L 751.506294 615.599515 
L 762.432168 615.599514 
L 773.358042 615.599512 
L 784.283916 615.59951 
L 795.20979 615.59951 
L 806.135664 615.599509 
L 817.061538 615.599508 
L 827.987413 615.599507 
L 838.913287 615.599507 
L 849.839161 615.599506 
L 860.765035 615.599506 
L 871.690909 615.599505 
" style="fill:none;stroke:#9467bd;stroke-linecap:square;stroke-width:1.5;"/>
   </g>
   <g id="line2d_18">
    <path clip-path="url(#p345747e11a)" d="M 161.509091 358.225604 
L 172.434965 357.049217 
L 183.360839 355.237937 
L 194.286713 353.033543 
L 205.212587 350.614286 
L 216.138462 348.094876 
L 227.064336 345.523142 
L 237.99021 342.883376 
L 248.916084 340.106331 
L 259.841958 337.085828 
L 270.767832 333.728763 
L 281.693706 330.008328 
L 292.61958 326.010679 
L 303.545455 321.954843 
L 314.471329 318.136196 
L 325.397203 314.759919 
L 336.323077 311.938736 
L 347.248951 309.60078 
L 358.174825 307.541249 
L 369.100699 305.456128 
L 380.026573 303.135269 
L 390.952448 300.491779 
L 401.878322 297.62137 
L 412.804196 294.714696 
L 423.73007 292.049961 
L 434.655944 289.818434 
L 445.581818 288.083519 
L 456.507692 286.752706 
L 467.433566 285.67165 
L 478.359441 284.613848 
L 489.285315 283.411687 
L 500.211189 282.023929 
L 511.137063 280.491407 
L 522.062937 278.828161 
L 532.988811 277.072812 
L 543.914685 275.258354 
L 554.840559 273.373585 
L 565.766434 271.414172 
L 576.692308 269.431547 
L 587.618182 267.493871 
L 598.544056 265.650505 
L 609.46993 263.909923 
L 620.395804 262.258434 
L 631.321678 260.693592 
L 642.247552 259.205797 
L 653.173427 257.779543 
L 664.099301 256.432021 
L 675.025175 255.145192 
L 685.951049 253.825392 
L 696.876923 252.348775 
L 707.802797 250.631424 
L 718.728671 248.635764 
L 729.654545 246.399579 
L 740.58042 244.008494 
L 751.506294 241.588384 
L 762.432168 239.234345 
L 773.358042 236.970984 
L 784.283916 234.781916 
L 795.20979 232.671918 
L 806.135664 230.635445 
L 817.061538 228.667416 
L 827.987413 226.779071 
L 838.913287 224.976001 
L 849.839161 223.238455 
L 860.765035 221.537851 
L 871.690909 219.853373 
" style="fill:none;stroke:#8c564b;stroke-linecap:square;stroke-width:1.5;"/>
   </g>
   <g id="line2d_19">
    <path clip-path="url(#p345747e11a)" d="M 161.509091 615.599994 
L 172.434965 615.599994 
L 183.360839 615.599994 
L 194.286713 615.599994 
L 205.212587 615.599995 
L 216.138462 615.599994 
L 227.064336 615.599994 
L 237.99021 615.599994 
L 248.916084 615.599994 
L 259.841958 615.599994 
L 270.767832 615.599995 
L 281.693706 615.599994 
L 292.61958 615.599994 
L 303.545455 615.599994 
L 314.471329 615.599993 
L 325.397203 615.599993 
L 336.323077 615.599994 
L 347.248951 615.599994 
L 358.174825 615.599995 
L 369.100699 615.599996 
L 380.026573 615.599996 
L 390.952448 615.599996 
L 401.878322 615.599996 
L 412.804196 615.599997 
L 423.73007 615.599996 
L 434.655944 615.599997 
L 445.581818 615.599998 
L 456.507692 615.599998 
L 467.433566 615.599998 
L 478.359441 615.599998 
L 489.285315 615.599998 
L 500.211189 615.599998 
L 511.137063 615.599998 
L 522.062937 615.599998 
L 532.988811 615.599998 
L 543.914685 615.599997 
L 554.840559 615.599997 
L 565.766434 615.599997 
L 576.692308 615.599996 
L 587.618182 615.599996 
L 598.544056 615.599995 
L 609.46993 615.599995 
L 620.395804 615.599995 
L 631.321678 615.599996 
L 642.247552 615.599996 
L 653.173427 615.599997 
L 664.099301 615.599998 
L 675.025175 615.599999 
L 685.951049 615.599999 
L 696.876923 615.599999 
L 707.802797 615.599998 
L 718.728671 615.599998 
L 729.654545 615.599998 
L 740.58042 615.599997 
L 751.506294 615.599997 
L 762.432168 615.599997 
L 773.358042 615.599997 
L 784.283916 615.599996 
L 795.20979 615.599996 
L 806.135664 615.599996 
L 817.061538 615.599996 
L 827.987413 615.599996 
L 838.913287 615.599996 
L 849.839161 615.599996 
L 860.765035 615.599996 
L 871.690909 615.599996 
" style="fill:none;stroke:#e377c2;stroke-linecap:square;stroke-width:1.5;"/>
   </g>
   <g id="line2d_20">
    <path clip-path="url(#p345747e11a)" d="M 161.509091 615.599571 
L 172.434965 615.59957 
L 183.360839 615.599567 
L 194.286713 615.599566 
L 205.212587 615.599563 
L 216.138462 615.599562 
L 227.064336 615.599562 
L 237.99021 615.599563 
L 248.916084 615.599559 
L 259.841958 615.599557 
L 270.767832 615.599559 
L 281.693706 615.599557 
L 292.61958 615.599557 
L 303.545455 615.599556 
L 314.471329 615.599555 
L 325.397203 615.599554 
L 336.323077 615.599553 
L 347.248951 615.599553 
L 358.174825 615.599553 
L 369.100699 615.599553 
L 380.026573 615.599549 
L 390.952448 615.59955 
L 401.878322 615.599549 
L 412.804196 615.599548 
L 423.73007 615.599548 
L 434.655944 615.599547 
L 445.581818 615.599547 
L 456.507692 615.599545 
L 467.433566 615.599544 
L 478.359441 615.599544 
L 489.285315 615.599543 
L 500.211189 615.599541 
L 511.137063 615.599539 
L 522.062937 615.599537 
L 532.988811 615.599536 
L 543.914685 615.599537 
L 554.840559 615.599535 
L 565.766434 615.599534 
L 576.692308 615.599535 
L 587.618182 615.599531 
L 598.544056 615.599531 
L 609.46993 615.599531 
L 620.395804 615.599528 
L 631.321678 615.599527 
L 642.247552 615.599526 
L 653.173427 615.599523 
L 664.099301 615.599522 
L 675.025175 615.59952 
L 685.951049 615.599519 
L 696.876923 615.599519 
L 707.802797 615.599518 
L 718.728671 615.599518 
L 729.654545 615.599516 
L 740.58042 615.599515 
L 751.506294 615.599515 
L 762.432168 615.599513 
L 773.358042 615.599511 
L 784.283916 615.599511 
L 795.20979 615.59951 
L 806.135664 615.599509 
L 817.061538 615.599507 
L 827.987413 615.599506 
L 838.913287 615.599505 
L 849.839161 615.599505 
L 860.765035 615.599503 
L 871.690909 615.599503 
" style="fill:none;stroke:#7f7f7f;stroke-linecap:square;stroke-width:1.5;"/>
   </g>
   <g id="line2d_21">
    <path clip-path="url(#p345747e11a)" d="M 161.509091 572.520039 
L 172.434965 572.137987 
L 183.360839 571.80945 
L 194.286713 571.517031 
L 205.212587 571.246288 
L 216.138462 570.985697 
L 227.064336 570.72679 
L 237.99021 570.464017 
L 248.916084 570.194527 
L 259.841958 569.917632 
L 270.767832 569.633528 
L 281.693706 569.341742 
L 292.61958 569.039927 
L 303.545455 568.723245 
L 314.471329 568.38597 
L 325.397203 568.02606 
L 336.323077 567.638686 
L 347.248951 567.230361 
L 358.174825 566.824237 
L 369.100699 566.451483 
L 380.026573 566.133947 
L 390.952448 565.882009 
L 401.878322 565.688325 
L 412.804196 565.535226 
L 423.73007 565.395912 
L 434.655944 565.251172 
L 445.581818 565.091774 
L 456.507692 564.923723 
L 467.433566 564.760718 
L 478.359441 564.623468 
L 489.285315 564.524629 
L 500.211189 564.469964 
L 511.137063 564.447496 
L 522.062937 564.430719 
L 532.988811 564.383348 
L 543.914685 564.279427 
L 554.840559 564.113195 
L 565.766434 563.893214 
L 576.692308 563.626189 
L 587.618182 563.324269 
L 598.544056 562.999346 
L 609.46993 562.646417 
L 620.395804 562.269988 
L 631.321678 561.903018 
L 642.247552 561.588389 
L 653.173427 561.354709 
L 664.099301 561.215204 
L 675.025175 561.155678 
L 685.951049 561.142785 
L 696.876923 561.128091 
L 707.802797 561.074692 
L 718.728671 560.97396 
L 729.654545 560.831235 
L 740.58042 560.640556 
L 751.506294 560.398691 
L 762.432168 560.104434 
L 773.358042 559.753595 
L 784.283916 559.347588 
L 795.20979 558.898856 
L 806.135664 558.425038 
L 817.061538 557.940367 
L 827.987413 557.448383 
L 838.913287 556.949946 
L 849.839161 556.453444 
L 860.765035 555.967944 
L 871.690909 555.49978 
" style="fill:none;stroke:#bcbd22;stroke-linecap:square;stroke-width:1.5;"/>
   </g>
   <g id="patch_3">
    <path d="M 126 640.8 
L 126 86.4 
" style="fill:none;stroke:#000000;stroke-linecap:square;stroke-linejoin:miter;stroke-width:0.8;"/>
   </g>
   <g id="patch_4">
    <path d="M 907.2 640.8 
L 907.2 86.4 
" style="fill:none;stroke:#000000;stroke-linecap:square;stroke-linejoin:miter;stroke-width:0.8;"/>
   </g>
   <g id="patch_5">
    <path d="M 126 640.8 
L 907.2 640.8 
" style="fill:none;stroke:#000000;stroke-linecap:square;stroke-linejoin:miter;stroke-width:0.8;"/>
   </g>
   <g id="patch_6">
    <path d="M 126 86.4 
L 907.2 86.4 
" style="fill:none;stroke:#000000;stroke-linecap:square;stroke-linejoin:miter;stroke-width:0.8;"/>
   </g>
   <g id="text_16">
    <!-- Life expectancy and offspring changes in subset countries -->
    <defs>
     <path d="M 9.8125 72.90625 
L 19.671875 72.90625 
L 19.671875 8.296875 
L 55.171875 8.296875 
L 55.171875 0 
L 9.8125 0 
z
" id="DejaVuSans-76"/>
     <path d="M 9.421875 54.6875 
L 18.40625 54.6875 
L 18.40625 0 
L 9.421875 0 
z
M 9.421875 75.984375 
L 18.40625 75.984375 
L 18.40625 64.59375 
L 9.421875 64.59375 
z
" id="DejaVuSans-105"/>
     <path d="M 54.890625 54.6875 
L 35.109375 28.078125 
L 55.90625 0 
L 45.3125 0 
L 29.390625 21.484375 
L 13.484375 0 
L 2.875 0 
L 24.125 28.609375 
L 4.6875 54.6875 
L 15.28125 54.6875 
L 29.78125 35.203125 
L 44.28125 54.6875 
z
" id="DejaVuSans-120"/>
     <path d="M 18.109375 8.203125 
L 18.109375 -20.796875 
L 9.078125 -20.796875 
L 9.078125 54.6875 
L 18.109375 54.6875 
L 18.109375 46.390625 
Q 20.953125 51.265625 25.265625 53.625 
Q 29.59375 56 35.59375 56 
Q 45.5625 56 51.78125 48.09375 
Q 58.015625 40.1875 58.015625 27.296875 
Q 58.015625 14.40625 51.78125 6.484375 
Q 45.5625 -1.421875 35.59375 -1.421875 
Q 29.59375 -1.421875 25.265625 0.953125 
Q 20.953125 3.328125 18.109375 8.203125 
z
M 48.6875 27.296875 
Q 48.6875 37.203125 44.609375 42.84375 
Q 40.53125 48.484375 33.40625 48.484375 
Q 26.265625 48.484375 22.1875 42.84375 
Q 18.109375 37.203125 18.109375 27.296875 
Q 18.109375 17.390625 22.1875 11.75 
Q 26.265625 6.109375 33.40625 6.109375 
Q 40.53125 6.109375 44.609375 11.75 
Q 48.6875 17.390625 48.6875 27.296875 
z
" id="DejaVuSans-112"/>
     <path d="M 32.171875 -5.078125 
Q 28.375 -14.84375 24.75 -17.8125 
Q 21.140625 -20.796875 15.09375 -20.796875 
L 7.90625 -20.796875 
L 7.90625 -13.28125 
L 13.1875 -13.28125 
Q 16.890625 -13.28125 18.9375 -11.515625 
Q 21 -9.765625 23.484375 -3.21875 
L 25.09375 0.875 
L 2.984375 54.6875 
L 12.5 54.6875 
L 29.59375 11.921875 
L 46.6875 54.6875 
L 56.203125 54.6875 
z
" id="DejaVuSans-121"/>
     <path d="M 45.40625 46.390625 
L 45.40625 75.984375 
L 54.390625 75.984375 
L 54.390625 0 
L 45.40625 0 
L 45.40625 8.203125 
Q 42.578125 3.328125 38.25 0.953125 
Q 33.9375 -1.421875 27.875 -1.421875 
Q 17.96875 -1.421875 11.734375 6.484375 
Q 5.515625 14.40625 5.515625 27.296875 
Q 5.515625 40.1875 11.734375 48.09375 
Q 17.96875 56 27.875 56 
Q 33.9375 56 38.25 53.625 
Q 42.578125 51.265625 45.40625 46.390625 
z
M 14.796875 27.296875 
Q 14.796875 17.390625 18.875 11.75 
Q 22.953125 6.109375 30.078125 6.109375 
Q 37.203125 6.109375 41.296875 11.75 
Q 45.40625 17.390625 45.40625 27.296875 
Q 45.40625 37.203125 41.296875 42.84375 
Q 37.203125 48.484375 30.078125 48.484375 
Q 22.953125 48.484375 18.875 42.84375 
Q 14.796875 37.203125 14.796875 27.296875 
z
" id="DejaVuSans-100"/>
     <path d="M 8.5 21.578125 
L 8.5 54.6875 
L 17.484375 54.6875 
L 17.484375 21.921875 
Q 17.484375 14.15625 20.5 10.265625 
Q 23.53125 6.390625 29.59375 6.390625 
Q 36.859375 6.390625 41.078125 11.03125 
Q 45.3125 15.671875 45.3125 23.6875 
L 45.3125 54.6875 
L 54.296875 54.6875 
L 54.296875 0 
L 45.3125 0 
L 45.3125 8.40625 
Q 42.046875 3.421875 37.71875 1 
Q 33.40625 -1.421875 27.6875 -1.421875 
Q 18.265625 -1.421875 13.375 4.4375 
Q 8.5 10.296875 8.5 21.578125 
z
M 31.109375 56 
z
" id="DejaVuSans-117"/>
     <path d="M 48.6875 27.296875 
Q 48.6875 37.203125 44.609375 42.84375 
Q 40.53125 48.484375 33.40625 48.484375 
Q 26.265625 48.484375 22.1875 42.84375 
Q 18.109375 37.203125 18.109375 27.296875 
Q 18.109375 17.390625 22.1875 11.75 
Q 26.265625 6.109375 33.40625 6.109375 
Q 40.53125 6.109375 44.609375 11.75 
Q 48.6875 17.390625 48.6875 27.296875 
z
M 18.109375 46.390625 
Q 20.953125 51.265625 25.265625 53.625 
Q 29.59375 56 35.59375 56 
Q 45.5625 56 51.78125 48.09375 
Q 58.015625 40.1875 58.015625 27.296875 
Q 58.015625 14.40625 51.78125 6.484375 
Q 45.5625 -1.421875 35.59375 -1.421875 
Q 29.59375 -1.421875 25.265625 0.953125 
Q 20.953125 3.328125 18.109375 8.203125 
L 18.109375 0 
L 9.078125 0 
L 9.078125 75.984375 
L 18.109375 75.984375 
z
" id="DejaVuSans-98"/>
    </defs>
    <g style="fill:#0000ff;" transform="translate(253.937813 80.4)scale(0.18 -0.18)">
     <use xlink:href="#DejaVuSans-76"/>
     <use x="55.712891" xlink:href="#DejaVuSans-105"/>
     <use x="83.496094" xlink:href="#DejaVuSans-102"/>
     <use x="118.701172" xlink:href="#DejaVuSans-101"/>
     <use x="180.224609" xlink:href="#DejaVuSans-32"/>
     <use x="212.011719" xlink:href="#DejaVuSans-101"/>
     <use x="271.785156" xlink:href="#DejaVuSans-120"/>
     <use x="330.964844" xlink:href="#DejaVuSans-112"/>
     <use x="394.441406" xlink:href="#DejaVuSans-101"/>
     <use x="455.964844" xlink:href="#DejaVuSans-99"/>
     <use x="510.945312" xlink:href="#DejaVuSans-116"/>
     <use x="550.154297" xlink:href="#DejaVuSans-97"/>
     <use x="611.433594" xlink:href="#DejaVuSans-110"/>
     <use x="674.8125" xlink:href="#DejaVuSans-99"/>
     <use x="729.792969" xlink:href="#DejaVuSans-121"/>
     <use x="788.972656" xlink:href="#DejaVuSans-32"/>
     <use x="820.759766" xlink:href="#DejaVuSans-97"/>
     <use x="882.039062" xlink:href="#DejaVuSans-110"/>
     <use x="945.417969" xlink:href="#DejaVuSans-100"/>
     <use x="1008.894531" xlink:href="#DejaVuSans-32"/>
     <use x="1040.681641" xlink:href="#DejaVuSans-111"/>
     <use x="1101.863281" xlink:href="#DejaVuSans-102"/>
     <use x="1137.068359" xlink:href="#DejaVuSans-102"/>
     <use x="1172.273438" xlink:href="#DejaVuSans-115"/>
     <use x="1224.373047" xlink:href="#DejaVuSans-112"/>
     <use x="1287.849609" xlink:href="#DejaVuSans-114"/>
     <use x="1328.962891" xlink:href="#DejaVuSans-105"/>
     <use x="1356.746094" xlink:href="#DejaVuSans-110"/>
     <use x="1420.125" xlink:href="#DejaVuSans-103"/>
     <use x="1483.601562" xlink:href="#DejaVuSans-32"/>
     <use x="1515.388672" xlink:href="#DejaVuSans-99"/>
     <use x="1570.369141" xlink:href="#DejaVuSans-104"/>
     <use x="1633.748047" xlink:href="#DejaVuSans-97"/>
     <use x="1695.027344" xlink:href="#DejaVuSans-110"/>
     <use x="1758.40625" xlink:href="#DejaVuSans-103"/>
     <use x="1821.882812" xlink:href="#DejaVuSans-101"/>
     <use x="1883.40625" xlink:href="#DejaVuSans-115"/>
     <use x="1935.505859" xlink:href="#DejaVuSans-32"/>
     <use x="1967.292969" xlink:href="#DejaVuSans-105"/>
     <use x="1995.076172" xlink:href="#DejaVuSans-110"/>
     <use x="2058.455078" xlink:href="#DejaVuSans-32"/>
     <use x="2090.242188" xlink:href="#DejaVuSans-115"/>
     <use x="2142.341797" xlink:href="#DejaVuSans-117"/>
     <use x="2205.720703" xlink:href="#DejaVuSans-98"/>
     <use x="2269.197266" xlink:href="#DejaVuSans-115"/>
     <use x="2321.296875" xlink:href="#DejaVuSans-101"/>
     <use x="2382.820312" xlink:href="#DejaVuSans-116"/>
     <use x="2422.029297" xlink:href="#DejaVuSans-32"/>
     <use x="2453.816406" xlink:href="#DejaVuSans-99"/>
     <use x="2508.796875" xlink:href="#DejaVuSans-111"/>
     <use x="2569.978516" xlink:href="#DejaVuSans-117"/>
     <use x="2633.357422" xlink:href="#DejaVuSans-110"/>
     <use x="2696.736328" xlink:href="#DejaVuSans-116"/>
     <use x="2735.945312" xlink:href="#DejaVuSans-114"/>
     <use x="2777.058594" xlink:href="#DejaVuSans-105"/>
     <use x="2804.841797" xlink:href="#DejaVuSans-101"/>
     <use x="2866.365234" xlink:href="#DejaVuSans-115"/>
    </g>
   </g>
   <g id="legend_1">
    <g id="patch_7">
     <path d="M 718.2 458.172187 
L 897.4 458.172187 
Q 900.2 458.172187 900.2 455.372187 
L 900.2 271.827812 
Q 900.2 269.027812 897.4 269.027812 
L 718.2 269.027812 
Q 715.4 269.027812 715.4 271.827812 
L 715.4 455.372187 
Q 715.4 458.172187 718.2 458.172187 
z
" style="fill:#ffffff;opacity:0.8;stroke:#cccccc;stroke-linejoin:miter;"/>
    </g>
    <g id="line2d_22">
     <path d="M 721 280.365625 
L 749 280.365625 
" style="fill:none;stroke:#1f77b4;stroke-linecap:square;stroke-width:1.5;"/>
    </g>
    <g id="line2d_23"/>
    <g id="text_17">
     <!-- (Germany, fertility) -->
     <defs>
      <path d="M 31 75.875 
Q 24.46875 64.65625 21.28125 53.65625 
Q 18.109375 42.671875 18.109375 31.390625 
Q 18.109375 20.125 21.3125 9.0625 
Q 24.515625 -2 31 -13.1875 
L 23.1875 -13.1875 
Q 15.875 -1.703125 12.234375 9.375 
Q 8.59375 20.453125 8.59375 31.390625 
Q 8.59375 42.28125 12.203125 53.3125 
Q 15.828125 64.359375 23.1875 75.875 
z
" id="DejaVuSans-40"/>
      <path d="M 59.515625 10.40625 
L 59.515625 29.984375 
L 43.40625 29.984375 
L 43.40625 38.09375 
L 69.28125 38.09375 
L 69.28125 6.78125 
Q 63.578125 2.734375 56.6875 0.65625 
Q 49.8125 -1.421875 42 -1.421875 
Q 24.90625 -1.421875 15.25 8.5625 
Q 5.609375 18.5625 5.609375 36.375 
Q 5.609375 54.25 15.25 64.234375 
Q 24.90625 74.21875 42 74.21875 
Q 49.125 74.21875 55.546875 72.453125 
Q 61.96875 70.703125 67.390625 67.28125 
L 67.390625 56.78125 
Q 61.921875 61.421875 55.765625 63.765625 
Q 49.609375 66.109375 42.828125 66.109375 
Q 29.4375 66.109375 22.71875 58.640625 
Q 16.015625 51.171875 16.015625 36.375 
Q 16.015625 21.625 22.71875 14.15625 
Q 29.4375 6.6875 42.828125 6.6875 
Q 48.046875 6.6875 52.140625 7.59375 
Q 56.25 8.5 59.515625 10.40625 
z
" id="DejaVuSans-71"/>
      <path d="M 52 44.1875 
Q 55.375 50.25 60.0625 53.125 
Q 64.75 56 71.09375 56 
Q 79.640625 56 84.28125 50.015625 
Q 88.921875 44.046875 88.921875 33.015625 
L 88.921875 0 
L 79.890625 0 
L 79.890625 32.71875 
Q 79.890625 40.578125 77.09375 44.375 
Q 74.3125 48.1875 68.609375 48.1875 
Q 61.625 48.1875 57.5625 43.546875 
Q 53.515625 38.921875 53.515625 30.90625 
L 53.515625 0 
L 44.484375 0 
L 44.484375 32.71875 
Q 44.484375 40.625 41.703125 44.40625 
Q 38.921875 48.1875 33.109375 48.1875 
Q 26.21875 48.1875 22.15625 43.53125 
Q 18.109375 38.875 18.109375 30.90625 
L 18.109375 0 
L 9.078125 0 
L 9.078125 54.6875 
L 18.109375 54.6875 
L 18.109375 46.1875 
Q 21.1875 51.21875 25.484375 53.609375 
Q 29.78125 56 35.6875 56 
Q 41.65625 56 45.828125 52.96875 
Q 50 49.953125 52 44.1875 
z
" id="DejaVuSans-109"/>
      <path d="M 11.71875 12.40625 
L 22.015625 12.40625 
L 22.015625 4 
L 14.015625 -11.625 
L 7.71875 -11.625 
L 11.71875 4 
z
" id="DejaVuSans-44"/>
      <path d="M 9.421875 75.984375 
L 18.40625 75.984375 
L 18.40625 0 
L 9.421875 0 
z
" id="DejaVuSans-108"/>
      <path d="M 8.015625 75.875 
L 15.828125 75.875 
Q 23.140625 64.359375 26.78125 53.3125 
Q 30.421875 42.28125 30.421875 31.390625 
Q 30.421875 20.453125 26.78125 9.375 
Q 23.140625 -1.703125 15.828125 -13.1875 
L 8.015625 -13.1875 
Q 14.5 -2 17.703125 9.0625 
Q 20.90625 20.125 20.90625 31.390625 
Q 20.90625 42.671875 17.703125 53.65625 
Q 14.5 64.65625 8.015625 75.875 
z
" id="DejaVuSans-41"/>
     </defs>
     <g transform="translate(760.2 285.265625)scale(0.14 -0.14)">
      <use xlink:href="#DejaVuSans-40"/>
      <use x="39.013672" xlink:href="#DejaVuSans-71"/>
      <use x="116.503906" xlink:href="#DejaVuSans-101"/>
      <use x="178.027344" xlink:href="#DejaVuSans-114"/>
      <use x="217.390625" xlink:href="#DejaVuSans-109"/>
      <use x="314.802734" xlink:href="#DejaVuSans-97"/>
      <use x="376.082031" xlink:href="#DejaVuSans-110"/>
      <use x="439.460938" xlink:href="#DejaVuSans-121"/>
      <use x="498.640625" xlink:href="#DejaVuSans-44"/>
      <use x="530.427734" xlink:href="#DejaVuSans-32"/>
      <use x="562.214844" xlink:href="#DejaVuSans-102"/>
      <use x="597.419922" xlink:href="#DejaVuSans-101"/>
      <use x="658.943359" xlink:href="#DejaVuSans-114"/>
      <use x="700.056641" xlink:href="#DejaVuSans-116"/>
      <use x="739.265625" xlink:href="#DejaVuSans-105"/>
      <use x="767.048828" xlink:href="#DejaVuSans-108"/>
      <use x="794.832031" xlink:href="#DejaVuSans-105"/>
      <use x="822.615234" xlink:href="#DejaVuSans-116"/>
      <use x="861.824219" xlink:href="#DejaVuSans-121"/>
      <use x="921.003906" xlink:href="#DejaVuSans-41"/>
     </g>
    </g>
    <g id="line2d_24">
     <path d="M 721 300.915 
L 749 300.915 
" style="fill:none;stroke:#ff7f0e;stroke-linecap:square;stroke-width:1.5;"/>
    </g>
    <g id="line2d_25"/>
    <g id="text_18">
     <!-- (Germany, lifeExp) -->
     <defs>
      <path d="M 9.8125 72.90625 
L 55.90625 72.90625 
L 55.90625 64.59375 
L 19.671875 64.59375 
L 19.671875 43.015625 
L 54.390625 43.015625 
L 54.390625 34.71875 
L 19.671875 34.71875 
L 19.671875 8.296875 
L 56.78125 8.296875 
L 56.78125 0 
L 9.8125 0 
z
" id="DejaVuSans-69"/>
     </defs>
     <g transform="translate(760.2 305.815)scale(0.14 -0.14)">
      <use xlink:href="#DejaVuSans-40"/>
      <use x="39.013672" xlink:href="#DejaVuSans-71"/>
      <use x="116.503906" xlink:href="#DejaVuSans-101"/>
      <use x="178.027344" xlink:href="#DejaVuSans-114"/>
      <use x="217.390625" xlink:href="#DejaVuSans-109"/>
      <use x="314.802734" xlink:href="#DejaVuSans-97"/>
      <use x="376.082031" xlink:href="#DejaVuSans-110"/>
      <use x="439.460938" xlink:href="#DejaVuSans-121"/>
      <use x="498.640625" xlink:href="#DejaVuSans-44"/>
      <use x="530.427734" xlink:href="#DejaVuSans-32"/>
      <use x="562.214844" xlink:href="#DejaVuSans-108"/>
      <use x="589.998047" xlink:href="#DejaVuSans-105"/>
      <use x="617.78125" xlink:href="#DejaVuSans-102"/>
      <use x="652.986328" xlink:href="#DejaVuSans-101"/>
      <use x="714.509766" xlink:href="#DejaVuSans-69"/>
      <use x="777.693359" xlink:href="#DejaVuSans-120"/>
      <use x="836.873047" xlink:href="#DejaVuSans-112"/>
      <use x="900.349609" xlink:href="#DejaVuSans-41"/>
     </g>
    </g>
    <g id="line2d_26">
     <path d="M 721 321.464375 
L 749 321.464375 
" style="fill:none;stroke:#2ca02c;stroke-linecap:square;stroke-width:1.5;"/>
    </g>
    <g id="line2d_27"/>
    <g id="text_19">
     <!-- (Germany, growth) -->
     <defs>
      <path d="M 4.203125 54.6875 
L 13.1875 54.6875 
L 24.421875 12.015625 
L 35.59375 54.6875 
L 46.1875 54.6875 
L 57.421875 12.015625 
L 68.609375 54.6875 
L 77.59375 54.6875 
L 63.28125 0 
L 52.6875 0 
L 40.921875 44.828125 
L 29.109375 0 
L 18.5 0 
z
" id="DejaVuSans-119"/>
     </defs>
     <g transform="translate(760.2 326.364375)scale(0.14 -0.14)">
      <use xlink:href="#DejaVuSans-40"/>
      <use x="39.013672" xlink:href="#DejaVuSans-71"/>
      <use x="116.503906" xlink:href="#DejaVuSans-101"/>
      <use x="178.027344" xlink:href="#DejaVuSans-114"/>
      <use x="217.390625" xlink:href="#DejaVuSans-109"/>
      <use x="314.802734" xlink:href="#DejaVuSans-97"/>
      <use x="376.082031" xlink:href="#DejaVuSans-110"/>
      <use x="439.460938" xlink:href="#DejaVuSans-121"/>
      <use x="498.640625" xlink:href="#DejaVuSans-44"/>
      <use x="530.427734" xlink:href="#DejaVuSans-32"/>
      <use x="562.214844" xlink:href="#DejaVuSans-103"/>
      <use x="625.691406" xlink:href="#DejaVuSans-114"/>
      <use x="664.554688" xlink:href="#DejaVuSans-111"/>
      <use x="725.736328" xlink:href="#DejaVuSans-119"/>
      <use x="807.523438" xlink:href="#DejaVuSans-116"/>
      <use x="846.732422" xlink:href="#DejaVuSans-104"/>
      <use x="910.111328" xlink:href="#DejaVuSans-41"/>
     </g>
    </g>
    <g id="line2d_28">
     <path d="M 721 342.01375 
L 749 342.01375 
" style="fill:none;stroke:#d62728;stroke-linecap:square;stroke-width:1.5;"/>
    </g>
    <g id="line2d_29"/>
    <g id="text_20">
     <!-- (France, fertility) -->
     <defs>
      <path d="M 9.8125 72.90625 
L 51.703125 72.90625 
L 51.703125 64.59375 
L 19.671875 64.59375 
L 19.671875 43.109375 
L 48.578125 43.109375 
L 48.578125 34.8125 
L 19.671875 34.8125 
L 19.671875 0 
L 9.8125 0 
z
" id="DejaVuSans-70"/>
     </defs>
     <g transform="translate(760.2 346.91375)scale(0.14 -0.14)">
      <use xlink:href="#DejaVuSans-40"/>
      <use x="39.013672" xlink:href="#DejaVuSans-70"/>
      <use x="89.283203" xlink:href="#DejaVuSans-114"/>
      <use x="130.396484" xlink:href="#DejaVuSans-97"/>
      <use x="191.675781" xlink:href="#DejaVuSans-110"/>
      <use x="255.054688" xlink:href="#DejaVuSans-99"/>
      <use x="310.035156" xlink:href="#DejaVuSans-101"/>
      <use x="371.558594" xlink:href="#DejaVuSans-44"/>
      <use x="403.345703" xlink:href="#DejaVuSans-32"/>
      <use x="435.132812" xlink:href="#DejaVuSans-102"/>
      <use x="470.337891" xlink:href="#DejaVuSans-101"/>
      <use x="531.861328" xlink:href="#DejaVuSans-114"/>
      <use x="572.974609" xlink:href="#DejaVuSans-116"/>
      <use x="612.183594" xlink:href="#DejaVuSans-105"/>
      <use x="639.966797" xlink:href="#DejaVuSans-108"/>
      <use x="667.75" xlink:href="#DejaVuSans-105"/>
      <use x="695.533203" xlink:href="#DejaVuSans-116"/>
      <use x="734.742188" xlink:href="#DejaVuSans-121"/>
      <use x="793.921875" xlink:href="#DejaVuSans-41"/>
     </g>
    </g>
    <g id="line2d_30">
     <path d="M 721 362.563125 
L 749 362.563125 
" style="fill:none;stroke:#9467bd;stroke-linecap:square;stroke-width:1.5;"/>
    </g>
    <g id="line2d_31"/>
    <g id="text_21">
     <!-- (France, lifeExp) -->
     <g transform="translate(760.2 367.463125)scale(0.14 -0.14)">
      <use xlink:href="#DejaVuSans-40"/>
      <use x="39.013672" xlink:href="#DejaVuSans-70"/>
      <use x="89.283203" xlink:href="#DejaVuSans-114"/>
      <use x="130.396484" xlink:href="#DejaVuSans-97"/>
      <use x="191.675781" xlink:href="#DejaVuSans-110"/>
      <use x="255.054688" xlink:href="#DejaVuSans-99"/>
      <use x="310.035156" xlink:href="#DejaVuSans-101"/>
      <use x="371.558594" xlink:href="#DejaVuSans-44"/>
      <use x="403.345703" xlink:href="#DejaVuSans-32"/>
      <use x="435.132812" xlink:href="#DejaVuSans-108"/>
      <use x="462.916016" xlink:href="#DejaVuSans-105"/>
      <use x="490.699219" xlink:href="#DejaVuSans-102"/>
      <use x="525.904297" xlink:href="#DejaVuSans-101"/>
      <use x="587.427734" xlink:href="#DejaVuSans-69"/>
      <use x="650.611328" xlink:href="#DejaVuSans-120"/>
      <use x="709.791016" xlink:href="#DejaVuSans-112"/>
      <use x="773.267578" xlink:href="#DejaVuSans-41"/>
     </g>
    </g>
    <g id="line2d_32">
     <path d="M 721 383.1125 
L 749 383.1125 
" style="fill:none;stroke:#8c564b;stroke-linecap:square;stroke-width:1.5;"/>
    </g>
    <g id="line2d_33"/>
    <g id="text_22">
     <!-- (France, growth) -->
     <g transform="translate(760.2 388.0125)scale(0.14 -0.14)">
      <use xlink:href="#DejaVuSans-40"/>
      <use x="39.013672" xlink:href="#DejaVuSans-70"/>
      <use x="89.283203" xlink:href="#DejaVuSans-114"/>
      <use x="130.396484" xlink:href="#DejaVuSans-97"/>
      <use x="191.675781" xlink:href="#DejaVuSans-110"/>
      <use x="255.054688" xlink:href="#DejaVuSans-99"/>
      <use x="310.035156" xlink:href="#DejaVuSans-101"/>
      <use x="371.558594" xlink:href="#DejaVuSans-44"/>
      <use x="403.345703" xlink:href="#DejaVuSans-32"/>
      <use x="435.132812" xlink:href="#DejaVuSans-103"/>
      <use x="498.609375" xlink:href="#DejaVuSans-114"/>
      <use x="537.472656" xlink:href="#DejaVuSans-111"/>
      <use x="598.654297" xlink:href="#DejaVuSans-119"/>
      <use x="680.441406" xlink:href="#DejaVuSans-116"/>
      <use x="719.650391" xlink:href="#DejaVuSans-104"/>
      <use x="783.029297" xlink:href="#DejaVuSans-41"/>
     </g>
    </g>
    <g id="line2d_34">
     <path d="M 721 403.661875 
L 749 403.661875 
" style="fill:none;stroke:#e377c2;stroke-linecap:square;stroke-width:1.5;"/>
    </g>
    <g id="line2d_35"/>
    <g id="text_23">
     <!-- (Sweden, fertility) -->
     <defs>
      <path d="M 53.515625 70.515625 
L 53.515625 60.890625 
Q 47.90625 63.578125 42.921875 64.890625 
Q 37.9375 66.21875 33.296875 66.21875 
Q 25.25 66.21875 20.875 63.09375 
Q 16.5 59.96875 16.5 54.203125 
Q 16.5 49.359375 19.40625 46.890625 
Q 22.3125 44.4375 30.421875 42.921875 
L 36.375 41.703125 
Q 47.40625 39.59375 52.65625 34.296875 
Q 57.90625 29 57.90625 20.125 
Q 57.90625 9.515625 50.796875 4.046875 
Q 43.703125 -1.421875 29.984375 -1.421875 
Q 24.8125 -1.421875 18.96875 -0.25 
Q 13.140625 0.921875 6.890625 3.21875 
L 6.890625 13.375 
Q 12.890625 10.015625 18.65625 8.296875 
Q 24.421875 6.59375 29.984375 6.59375 
Q 38.421875 6.59375 43.015625 9.90625 
Q 47.609375 13.234375 47.609375 19.390625 
Q 47.609375 24.75 44.3125 27.78125 
Q 41.015625 30.8125 33.5 32.328125 
L 27.484375 33.5 
Q 16.453125 35.6875 11.515625 40.375 
Q 6.59375 45.0625 6.59375 53.421875 
Q 6.59375 63.09375 13.40625 68.65625 
Q 20.21875 74.21875 32.171875 74.21875 
Q 37.3125 74.21875 42.625 73.28125 
Q 47.953125 72.359375 53.515625 70.515625 
z
" id="DejaVuSans-83"/>
     </defs>
     <g transform="translate(760.2 408.561875)scale(0.14 -0.14)">
      <use xlink:href="#DejaVuSans-40"/>
      <use x="39.013672" xlink:href="#DejaVuSans-83"/>
      <use x="102.490234" xlink:href="#DejaVuSans-119"/>
      <use x="184.277344" xlink:href="#DejaVuSans-101"/>
      <use x="245.800781" xlink:href="#DejaVuSans-100"/>
      <use x="309.277344" xlink:href="#DejaVuSans-101"/>
      <use x="370.800781" xlink:href="#DejaVuSans-110"/>
      <use x="434.179688" xlink:href="#DejaVuSans-44"/>
      <use x="465.966797" xlink:href="#DejaVuSans-32"/>
      <use x="497.753906" xlink:href="#DejaVuSans-102"/>
      <use x="532.958984" xlink:href="#DejaVuSans-101"/>
      <use x="594.482422" xlink:href="#DejaVuSans-114"/>
      <use x="635.595703" xlink:href="#DejaVuSans-116"/>
      <use x="674.804688" xlink:href="#DejaVuSans-105"/>
      <use x="702.587891" xlink:href="#DejaVuSans-108"/>
      <use x="730.371094" xlink:href="#DejaVuSans-105"/>
      <use x="758.154297" xlink:href="#DejaVuSans-116"/>
      <use x="797.363281" xlink:href="#DejaVuSans-121"/>
      <use x="856.542969" xlink:href="#DejaVuSans-41"/>
     </g>
    </g>
    <g id="line2d_36">
     <path d="M 721 424.21125 
L 749 424.21125 
" style="fill:none;stroke:#7f7f7f;stroke-linecap:square;stroke-width:1.5;"/>
    </g>
    <g id="line2d_37"/>
    <g id="text_24">
     <!-- (Sweden, lifeExp) -->
     <g transform="translate(760.2 429.11125)scale(0.14 -0.14)">
      <use xlink:href="#DejaVuSans-40"/>
      <use x="39.013672" xlink:href="#DejaVuSans-83"/>
      <use x="102.490234" xlink:href="#DejaVuSans-119"/>
      <use x="184.277344" xlink:href="#DejaVuSans-101"/>
      <use x="245.800781" xlink:href="#DejaVuSans-100"/>
      <use x="309.277344" xlink:href="#DejaVuSans-101"/>
      <use x="370.800781" xlink:href="#DejaVuSans-110"/>
      <use x="434.179688" xlink:href="#DejaVuSans-44"/>
      <use x="465.966797" xlink:href="#DejaVuSans-32"/>
      <use x="497.753906" xlink:href="#DejaVuSans-108"/>
      <use x="525.537109" xlink:href="#DejaVuSans-105"/>
      <use x="553.320312" xlink:href="#DejaVuSans-102"/>
      <use x="588.525391" xlink:href="#DejaVuSans-101"/>
      <use x="650.048828" xlink:href="#DejaVuSans-69"/>
      <use x="713.232422" xlink:href="#DejaVuSans-120"/>
      <use x="772.412109" xlink:href="#DejaVuSans-112"/>
      <use x="835.888672" xlink:href="#DejaVuSans-41"/>
     </g>
    </g>
    <g id="line2d_38">
     <path d="M 721 444.760625 
L 749 444.760625 
" style="fill:none;stroke:#bcbd22;stroke-linecap:square;stroke-width:1.5;"/>
    </g>
    <g id="line2d_39"/>
    <g id="text_25">
     <!-- (Sweden, growth) -->
     <g transform="translate(760.2 449.660625)scale(0.14 -0.14)">
      <use xlink:href="#DejaVuSans-40"/>
      <use x="39.013672" xlink:href="#DejaVuSans-83"/>
      <use x="102.490234" xlink:href="#DejaVuSans-119"/>
      <use x="184.277344" xlink:href="#DejaVuSans-101"/>
      <use x="245.800781" xlink:href="#DejaVuSans-100"/>
      <use x="309.277344" xlink:href="#DejaVuSans-101"/>
      <use x="370.800781" xlink:href="#DejaVuSans-110"/>
      <use x="434.179688" xlink:href="#DejaVuSans-44"/>
      <use x="465.966797" xlink:href="#DejaVuSans-32"/>
      <use x="497.753906" xlink:href="#DejaVuSans-103"/>
      <use x="561.230469" xlink:href="#DejaVuSans-114"/>
      <use x="600.09375" xlink:href="#DejaVuSans-111"/>
      <use x="661.275391" xlink:href="#DejaVuSans-119"/>
      <use x="743.0625" xlink:href="#DejaVuSans-116"/>
      <use x="782.271484" xlink:href="#DejaVuSans-104"/>
      <use x="845.650391" xlink:href="#DejaVuSans-41"/>
     </g>
    </g>
   </g>
  </g>
 </g>
 <defs>
  <clipPath id="p345747e11a">
   <rect height="554.4" width="781.2" x="126" y="86.4"/>
  </clipPath>
 </defs>
</svg>
